<svg width="3286" height="882" viewBox="0 0 3286 882" fill="none" xmlns="http://www.w3.org/2000/svg">
<path d="M546.699 659.106L281.354 529.717L546.699 400.327V659.106ZM422.684 568.712H440.695V511.337L446.66 528.037L454.532 548.911L461.57 568.712H477.435L484.592 548.911L492.345 528.037L498.31 511.337V568.712H516.44V484.618H491.152L476.242 526.605L469.562 546.049L462.763 526.605L447.853 484.618H422.684V568.712ZM488.713 352.653L223.367 482.043V223.264L488.713 352.653ZM270.311 309.954V363.091C270.311 382.661 283.595 395.352 304.589 395.352C325.582 395.351 338.748 382.78 338.748 363.091V309.954H319.296V361.312C319.296 369.614 314.908 376.493 304.589 376.493C294.27 376.493 289.763 369.733 289.763 361.312V309.954H270.311Z" fill="white"/>
<path d="M2949.07 572.198L2974.68 517.451L2921.95 401.429H2959.87L2982.47 455.422L2992.51 480.284L3002.31 455.673L3024.41 401.429H3062.08L2987.24 572.198H2949.07Z" fill="white"/>
<path d="M2889.7 533.271C2866.6 533.271 2853.79 521.217 2853.79 499.62V430.558H2833.95V403.436H2843.49C2853.04 403.436 2856.05 400.172 2856.05 390.88V370.538H2887.69V401.427H2910.8V430.558H2887.69V486.812C2887.69 496.355 2891.71 500.624 2900.25 500.624C2904.02 500.624 2906.78 500.122 2910.8 499.368V530.258C2904.27 532.267 2898.24 533.271 2889.7 533.271Z" fill="white"/>
<path d="M2782.68 530.764V401.432H2816.58V530.764H2782.68ZM2799.5 388.122C2787.95 388.122 2779.41 379.332 2779.41 367.78C2779.41 356.228 2787.95 347.438 2799.5 347.438C2811.06 347.438 2819.85 356.228 2819.85 367.78C2819.85 379.332 2811.06 388.122 2799.5 388.122Z" fill="white"/>
<path d="M2710.47 534.53C2675.31 534.53 2650.7 516.197 2650.2 488.824H2684.6C2685.6 500.878 2696.15 508.663 2711.72 508.663C2725.28 508.663 2733.57 502.887 2733.57 493.595C2733.57 486.312 2729.8 482.797 2719.26 481.039L2689.37 476.267C2666.02 472.5 2653.71 459.944 2653.71 439.853C2653.71 414.489 2676.06 397.663 2709.96 397.663C2744.37 397.663 2766.72 414.991 2767.47 441.36H2733.07C2732.06 429.557 2722.77 422.776 2708.71 422.776C2695.9 422.776 2688.12 428.552 2688.12 437.091C2688.12 443.871 2692.64 447.387 2702.93 449.145L2733.82 453.917C2756.17 457.432 2767.98 470.491 2767.98 490.582C2767.98 517.202 2745.37 534.53 2710.47 534.53Z" fill="white"/>
<path d="M2570.39 530.761V401.428H2602.79V421.017C2608.06 406.702 2620.62 398.917 2636.44 398.917H2642.22V433.071H2637.2C2615.85 433.071 2604.3 445.376 2604.3 466.471V530.761H2570.39Z" fill="white"/>
<path d="M2486.93 534.53C2446.49 534.53 2420.38 507.408 2420.38 465.72C2420.38 425.288 2447 397.663 2485.92 397.663C2524.85 397.663 2551.47 423.027 2551.47 460.697V461.199C2551.47 467.226 2550.96 473.003 2550.21 477.272H2455.03C2455.78 495.604 2468.09 507.659 2487.68 507.659C2501.99 507.659 2511.54 501.129 2515.05 491.084H2549.71C2542.68 518.457 2519.82 534.53 2486.93 534.53ZM2516.81 452.661C2516.31 435.082 2504.5 423.781 2486.17 423.781C2468.59 423.781 2456.29 434.328 2455.03 452.661H2516.81Z" fill="white"/>
<path d="M2335.2 530.761L2283.21 401.429H2321.14L2340.98 459.691L2352.53 492.841L2363.83 459.691L2383.67 401.429H2421.59L2369.6 530.761H2335.2Z" fill="white"/>
<path d="M2236.42 530.764V401.432H2270.32V530.764H2236.42ZM2253.25 388.122C2241.69 388.122 2233.16 379.332 2233.16 367.78C2233.16 356.228 2241.69 347.438 2253.25 347.438C2264.8 347.438 2273.59 356.228 2273.59 367.78C2273.59 379.332 2264.8 388.122 2253.25 388.122Z" fill="white"/>
<path d="M2099.68 530.763V401.43H2132.08V416.247C2139.36 404.444 2154.18 397.663 2171 397.663C2197.87 397.663 2217.96 412.982 2217.96 448.894V530.763H2183.81V456.177C2183.81 438.849 2175.52 429.055 2159.95 429.055C2143.38 429.055 2133.58 440.355 2133.58 457.683V530.763H2099.68Z" fill="white"/>
<path d="M2010 534.529C1966.81 534.529 1939.68 508.663 1939.68 467.226V353.715H1975.34V463.962C1975.34 485.057 1986.65 500.124 2010 500.124C2033.36 500.124 2044.66 485.057 2044.66 463.962V353.715H2080.32V467.226C2080.32 508.663 2053.2 534.529 2010 534.529Z" fill="white"/>
<path d="M1846.22 533.271C1823.12 533.271 1810.31 521.217 1810.31 499.62V430.558H1790.47V403.436H1800.01C1809.55 403.436 1812.57 400.172 1812.57 390.88V370.538H1844.21V401.427H1867.32V430.558H1844.21V486.812C1844.21 496.355 1848.23 500.624 1856.77 500.624C1860.53 500.624 1863.3 500.122 1867.32 499.368V530.258C1860.79 532.267 1854.76 533.271 1846.22 533.271Z" fill="white"/>
<path d="M1659.04 530.763V353.715H1692.94V414.489C1700.22 403.941 1714.54 397.663 1730.36 397.663C1757.23 397.663 1777.32 412.982 1777.32 448.894V530.763H1743.16V456.176C1743.16 438.597 1734.88 428.803 1719.56 428.803C1702.73 428.803 1692.94 440.355 1692.94 457.432V530.763H1659.04Z" fill="white"/>
<path d="M1575.55 534.53C1535.62 534.53 1508.75 505.901 1508.75 465.971C1508.75 426.292 1535.12 397.663 1576.81 397.663C1615.48 397.663 1638.33 423.781 1639.59 452.912H1605.18C1602.92 437.091 1591.12 428.301 1575.8 428.301C1555.96 428.301 1543.16 441.862 1543.16 465.971C1543.16 490.331 1556.21 503.892 1575.8 503.892C1590.62 503.892 1601.92 496.86 1605.18 479.783H1639.59C1636.83 508.663 1615.98 534.53 1575.55 534.53Z" fill="white"/>
<path d="M1463.25 530.764V401.432H1497.15V530.764H1463.25ZM1480.07 388.122C1468.52 388.122 1459.98 379.332 1459.98 367.78C1459.98 356.228 1468.52 347.438 1480.07 347.438C1491.63 347.438 1500.42 356.228 1500.42 367.78C1500.42 379.332 1491.63 388.122 1480.07 388.122Z" fill="white"/>
<path d="M1376.18 530.761V401.428H1408.58V421.017C1413.85 406.702 1426.41 398.917 1442.23 398.917H1448.01V433.071H1442.98C1421.64 433.071 1410.09 445.376 1410.09 466.471V530.761H1376.18Z" fill="white"/>
<path d="M1338.68 533.271C1315.58 533.271 1302.77 521.217 1302.77 499.62V430.558H1282.93V403.436H1292.47C1302.02 403.436 1305.03 400.172 1305.03 390.88V370.538H1336.67V401.427H1359.78V430.558H1336.67V486.812C1336.67 496.355 1340.69 500.624 1349.23 500.624C1353 500.624 1355.76 500.122 1359.78 499.368V530.258C1353.25 532.267 1347.22 533.271 1338.68 533.271Z" fill="white"/>
<path d="M1218.81 534.53C1183.66 534.53 1159.05 516.197 1158.54 488.824H1192.95C1193.95 500.878 1204.5 508.663 1220.07 508.663C1233.63 508.663 1241.92 502.887 1241.92 493.595C1241.92 486.312 1238.15 482.797 1227.6 481.039L1197.72 476.267C1174.36 472.5 1162.06 459.944 1162.06 439.853C1162.06 414.489 1184.41 397.663 1218.31 397.663C1252.72 397.663 1275.07 414.991 1275.82 441.36H1241.42C1240.41 429.557 1231.12 422.776 1217.06 422.776C1204.25 422.776 1196.46 428.552 1196.46 437.091C1196.46 443.871 1200.98 447.387 1211.28 449.145L1242.17 453.917C1264.52 457.432 1276.32 470.491 1276.32 490.582C1276.32 517.202 1253.72 534.53 1218.81 534.53Z" fill="white"/>
<path d="M1065.25 534.53C1038.13 534.53 1019.3 519.211 1019.3 494.851C1019.3 471.496 1035.37 458.688 1059.48 454.67L1089.87 449.396C1098.15 447.889 1102.42 444.876 1102.42 438.095C1102.42 429.557 1095.39 424.032 1082.33 424.032C1069.27 424.032 1058.72 430.059 1057.47 441.862H1023.06C1024.82 415.242 1049.68 397.663 1082.08 397.663C1118.24 397.663 1136.58 415.242 1136.58 439.853V495.855C1136.58 502.134 1139.59 503.892 1143.61 503.892C1145.62 503.892 1147.37 503.641 1149.38 503.138V529.507C1144.11 531.767 1137.33 533.274 1129.29 533.274C1117.99 533.274 1109.2 529.256 1104.68 519.211C1096.14 527.247 1084.09 534.53 1065.25 534.53ZM1074.04 507.91C1090.62 507.91 1102.42 497.865 1102.42 484.555V468.231C1100.41 470.491 1095.39 471.998 1087.6 473.505L1070.28 477.021C1058.72 479.281 1053.7 484.303 1053.7 492.591C1053.7 502.636 1061.99 507.91 1074.04 507.91Z" fill="white"/>
<path d="M928.785 534.53C901.663 534.53 882.828 519.211 882.828 494.851C882.828 471.496 898.901 458.688 923.009 454.67L953.396 449.396C961.684 447.889 965.953 444.876 965.953 438.095C965.953 429.557 958.921 424.032 945.862 424.032C932.803 424.032 922.256 430.059 921 441.862H886.595C888.353 415.242 913.215 397.663 945.611 397.663C981.774 397.663 1000.11 415.242 1000.11 439.853V495.855C1000.11 502.134 1003.12 503.892 1007.14 503.892C1009.15 503.892 1010.91 503.641 1012.91 503.138V529.507C1007.64 531.767 1000.86 533.274 992.824 533.274C981.523 533.274 972.734 529.256 968.213 519.211C959.675 527.247 947.62 534.53 928.785 534.53ZM937.575 507.91C954.15 507.91 965.953 497.865 965.953 484.555V468.231C963.944 470.491 958.921 471.998 951.136 473.505L933.808 477.021C922.256 479.281 917.233 484.303 917.233 492.591C917.233 502.636 925.521 507.91 937.575 507.91Z" fill="white"/>
<path d="M676.078 530.759V353.711H722.287L757.947 448.639L772.513 489.071H772.764L787.079 448.639L822.739 353.711H869.199V530.759H836.301V435.831V402.179L823.744 436.082L802.9 489.071L787.33 530.759H757.947L742.377 489.071L721.533 436.082L708.976 402.179V435.831V530.759H676.078Z" fill="white"/>
</svg>
