<svg width="3286" height="882" viewBox="0 0 3286 882" fill="none" xmlns="http://www.w3.org/2000/svg">
<path d="M546.697 659.106L281.353 529.717L546.697 400.328V659.106ZM422.685 568.713H440.696V511.338L446.66 528.037L454.533 548.911L461.57 568.713H477.436L484.592 548.911L492.346 528.037L498.31 511.338V568.713H516.44V484.618H491.152L476.242 526.605L469.562 546.049L462.764 526.605L447.853 484.618H422.685V568.713ZM488.711 352.653L223.365 482.043V223.264L488.711 352.653ZM270.307 309.954V363.091C270.307 382.661 283.591 395.353 304.585 395.353C325.579 395.352 338.744 382.78 338.744 363.091V309.954H319.292V361.312C319.292 369.614 314.904 376.493 304.585 376.493C294.266 376.493 289.759 369.733 289.759 361.312V309.954H270.307Z" fill="#000831"/>
<path d="M2949.07 572.198L2974.68 517.451L2921.94 401.429H2959.86L2982.47 455.422L2992.51 480.284L3002.31 455.673L3024.41 401.429H3062.08L2987.24 572.198H2949.07Z" fill="#000831"/>
<path d="M2889.7 533.272C2866.6 533.272 2853.79 521.218 2853.79 499.621V430.559H2833.95V403.437H2843.49C2853.04 403.437 2856.05 400.173 2856.05 390.881V370.539H2887.69V401.428H2910.8V430.559H2887.69V486.813C2887.69 496.356 2891.71 500.625 2900.25 500.625C2904.02 500.625 2906.78 500.123 2910.8 499.369V530.259C2904.27 532.268 2898.24 533.272 2889.7 533.272Z" fill="#000831"/>
<path d="M2782.68 530.765V401.433H2816.58V530.765H2782.68ZM2799.5 388.123C2787.95 388.123 2779.41 379.333 2779.41 367.781C2779.41 356.229 2787.95 347.439 2799.5 347.439C2811.05 347.439 2819.84 356.229 2819.84 367.781C2819.84 379.333 2811.05 388.123 2799.5 388.123Z" fill="#000831"/>
<path d="M2710.47 534.53C2675.31 534.53 2650.7 516.197 2650.2 488.824H2684.6C2685.6 500.878 2696.15 508.663 2711.72 508.663C2725.28 508.663 2733.57 502.887 2733.57 493.595C2733.57 486.312 2729.8 482.797 2719.26 481.039L2689.37 476.267C2666.02 472.5 2653.71 459.944 2653.71 439.853C2653.71 414.489 2676.06 397.663 2709.96 397.663C2744.37 397.663 2766.72 414.991 2767.47 441.36H2733.07C2732.06 429.557 2722.77 422.776 2708.71 422.776C2695.9 422.776 2688.12 428.552 2688.12 437.091C2688.12 443.871 2692.64 447.387 2702.93 449.145L2733.82 453.917C2756.17 457.432 2767.98 470.491 2767.98 490.582C2767.98 517.202 2745.37 534.53 2710.47 534.53Z" fill="#000831"/>
<path d="M2570.4 530.761V401.428H2602.79V421.017C2608.07 406.702 2620.62 398.917 2636.44 398.917H2642.22V433.071H2637.2C2615.85 433.071 2604.3 445.376 2604.3 466.471V530.761H2570.4Z" fill="#000831"/>
<path d="M2486.92 534.53C2446.49 534.53 2420.37 507.408 2420.37 465.72C2420.37 425.288 2446.99 397.663 2485.92 397.663C2524.84 397.663 2551.46 423.027 2551.46 460.697V461.199C2551.46 467.226 2550.96 473.003 2550.21 477.272H2455.03C2455.78 495.604 2468.09 507.659 2487.68 507.659C2501.99 507.659 2511.53 501.129 2515.05 491.084H2549.71C2542.67 518.457 2519.82 534.53 2486.92 534.53ZM2516.81 452.661C2516.31 435.082 2504.5 423.781 2486.17 423.781C2468.59 423.781 2456.29 434.328 2455.03 452.661H2516.81Z" fill="#000831"/>
<path d="M2335.2 530.761L2283.22 401.429H2321.14L2340.98 459.691L2352.53 492.841L2363.83 459.691L2383.67 401.429H2421.59L2369.61 530.761H2335.2Z" fill="#000831"/>
<path d="M2236.42 530.765V401.433H2270.32V530.765H2236.42ZM2253.25 388.123C2241.69 388.123 2233.16 379.333 2233.16 367.781C2233.16 356.229 2241.69 347.439 2253.25 347.439C2264.8 347.439 2273.59 356.229 2273.59 367.781C2273.59 379.333 2264.8 388.123 2253.25 388.123Z" fill="#000831"/>
<path d="M2099.68 530.763V401.43H2132.08V416.247C2139.36 404.444 2154.18 397.663 2171 397.663C2197.87 397.663 2217.96 412.982 2217.96 448.894V530.763H2183.81V456.177C2183.81 438.849 2175.52 429.055 2159.95 429.055C2143.38 429.055 2133.58 440.355 2133.58 457.684V530.763H2099.68Z" fill="#000831"/>
<path d="M2010 534.529C1966.81 534.529 1939.68 508.663 1939.68 467.226V353.715H1975.34V463.962C1975.34 485.057 1986.65 500.124 2010 500.124C2033.36 500.124 2044.66 485.057 2044.66 463.962V353.715H2080.32V467.226C2080.32 508.663 2053.2 534.529 2010 534.529Z" fill="#000831"/>
<path d="M1846.22 533.272C1823.12 533.272 1810.31 521.218 1810.31 499.621V430.559H1790.47V403.437H1800.02C1809.56 403.437 1812.57 400.173 1812.57 390.881V370.539H1844.21V401.428H1867.32V430.559H1844.21V486.813C1844.21 496.356 1848.23 500.625 1856.77 500.625C1860.54 500.625 1863.3 500.123 1867.32 499.369V530.259C1860.79 532.268 1854.76 533.272 1846.22 533.272Z" fill="#000831"/>
<path d="M1659.04 530.763V353.715H1692.94V414.489C1700.22 403.941 1714.54 397.663 1730.36 397.663C1757.23 397.663 1777.32 412.982 1777.32 448.894V530.763H1743.17V456.177C1743.17 438.597 1734.88 428.803 1719.56 428.803C1702.74 428.803 1692.94 440.355 1692.94 457.432V530.763H1659.04Z" fill="#000831"/>
<path d="M1575.56 534.53C1535.63 534.53 1508.76 505.901 1508.76 465.971C1508.76 426.292 1535.13 397.663 1576.82 397.663C1615.49 397.663 1638.34 423.781 1639.6 452.912H1605.19C1602.93 437.091 1591.13 428.301 1575.81 428.301C1555.97 428.301 1543.16 441.862 1543.16 465.971C1543.16 490.331 1556.22 503.892 1575.81 503.892C1590.63 503.892 1601.93 496.86 1605.19 479.783H1639.6C1636.84 508.663 1615.99 534.53 1575.56 534.53Z" fill="#000831"/>
<path d="M1463.25 530.765V401.433H1497.15V530.765H1463.25ZM1480.08 388.123C1468.52 388.123 1459.99 379.333 1459.99 367.781C1459.99 356.229 1468.52 347.439 1480.08 347.439C1491.63 347.439 1500.42 356.229 1500.42 367.781C1500.42 379.333 1491.63 388.123 1480.08 388.123Z" fill="#000831"/>
<path d="M1376.19 530.761V401.428H1408.58V421.017C1413.86 406.702 1426.41 398.917 1442.24 398.917H1448.01V433.071H1442.99C1421.64 433.071 1410.09 445.376 1410.09 466.471V530.761H1376.19Z" fill="#000831"/>
<path d="M1338.69 533.272C1315.59 533.272 1302.78 521.218 1302.78 499.621V430.559H1282.94V403.437H1292.48C1302.03 403.437 1305.04 400.173 1305.04 390.881V370.539H1336.68V401.428H1359.79V430.559H1336.68V486.813C1336.68 496.356 1340.7 500.625 1349.24 500.625C1353.01 500.625 1355.77 500.123 1359.79 499.369V530.259C1353.26 532.268 1347.23 533.272 1338.69 533.272Z" fill="#000831"/>
<path d="M1218.83 534.53C1183.67 534.53 1159.06 516.197 1158.56 488.824H1192.96C1193.97 500.878 1204.51 508.663 1220.08 508.663C1233.65 508.663 1241.93 502.887 1241.93 493.595C1241.93 486.312 1238.17 482.797 1227.62 481.039L1197.73 476.267C1174.38 472.5 1162.07 459.944 1162.07 439.853C1162.07 414.489 1184.42 397.663 1218.33 397.663C1252.73 397.663 1275.08 414.991 1275.84 441.36H1241.43C1240.43 429.557 1231.13 422.776 1217.07 422.776C1204.26 422.776 1196.48 428.552 1196.48 437.091C1196.48 443.871 1201 447.387 1211.29 449.145L1242.18 453.917C1264.53 457.432 1276.34 470.491 1276.34 490.582C1276.34 517.202 1253.74 534.53 1218.83 534.53Z" fill="#000831"/>
<path d="M1065.26 534.53C1038.14 534.53 1019.3 519.211 1019.3 494.851C1019.3 471.496 1035.37 458.688 1059.48 454.67L1089.87 449.396C1098.16 447.889 1102.43 444.876 1102.43 438.095C1102.43 429.557 1095.39 424.032 1082.33 424.032C1069.28 424.032 1058.73 430.059 1057.47 441.862H1023.07C1024.83 415.242 1049.69 397.663 1082.08 397.663C1118.25 397.663 1136.58 415.242 1136.58 439.853V495.855C1136.58 502.134 1139.59 503.892 1143.61 503.892C1145.62 503.892 1147.38 503.641 1149.39 503.138V529.507C1144.11 531.767 1137.33 533.274 1129.3 533.274C1118 533.274 1109.21 529.256 1104.69 519.211C1096.15 527.247 1084.09 534.53 1065.26 534.53ZM1074.05 507.91C1090.62 507.91 1102.43 497.865 1102.43 484.555V468.231C1100.42 470.491 1095.39 471.998 1087.61 473.505L1070.28 477.021C1058.73 479.281 1053.71 484.303 1053.71 492.591C1053.71 502.636 1061.99 507.91 1074.05 507.91Z" fill="#000831"/>
<path d="M928.789 534.53C901.667 534.53 882.832 519.211 882.832 494.851C882.832 471.496 898.905 458.688 923.013 454.67L953.4 449.396C961.688 447.889 965.957 444.876 965.957 438.095C965.957 429.557 958.925 424.032 945.866 424.032C932.807 424.032 922.26 430.059 921.004 441.862H886.599C888.357 415.242 913.219 397.663 945.615 397.663C981.778 397.663 1000.11 415.242 1000.11 439.853V495.855C1000.11 502.134 1003.12 503.892 1007.14 503.892C1009.15 503.892 1010.91 503.641 1012.92 503.138V529.507C1007.64 531.767 1000.86 533.274 992.828 533.274C981.527 533.274 972.737 529.256 968.217 519.211C959.679 527.247 947.624 534.53 928.789 534.53ZM937.579 507.91C954.154 507.91 965.957 497.865 965.957 484.555V468.231C963.948 470.491 958.925 471.998 951.14 473.505L933.812 477.021C922.26 479.281 917.237 484.303 917.237 492.591C917.237 502.636 925.525 507.91 937.579 507.91Z" fill="#000831"/>
<path d="M676.086 530.759V353.711H722.294L757.955 448.639L772.521 489.071H772.772L787.086 448.639L822.747 353.711H869.207V530.759H836.308V435.831V402.179L823.752 436.082L802.908 489.071L787.338 530.759H757.955L742.385 489.071L721.541 436.082L708.984 402.179V435.831V530.759H676.086Z" fill="#000831"/>
</svg>
